<?xml version="1.0" standalone="no"?>
<!DOCTYPE svg PUBLIC "-//W3C//DTD SVG 20010904//EN"
 "http://www.w3.org/TR/2001/REC-SVG-20010904/DTD/svg10.dtd">
<svg version="1.0" xmlns="http://www.w3.org/2000/svg"
 width="50.000000pt" height="50.000000pt" viewBox="0 0 50.000000 50.000000"
 preserveAspectRatio="xMidYMid meet">

<g transform="translate(0.000000,50.000000) scale(0.100000,-0.100000)"
fill="#000000" stroke="none">
<path d="M105 325 c-20 -19 -25 -34 -25 -75 0 -44 5 -56 29 -81 36 -36 71 -37
108 -4 15 13 23 25 17 25 -6 0 -17 -7 -24 -15 -30 -36 -103 -9 -112 40 -3 18
3 20 75 23 70 3 77 5 77 23 0 77 -92 118 -145 64z m90 9 c16 -6 45 -54 45 -74
0 -6 -30 -10 -76 -10 l-76 0 6 28 c12 48 56 73 101 56z"/>
<path d="M260 336 c0 -2 14 -20 30 -41 17 -21 30 -42 30 -47 0 -6 -14 -28 -31
-50 -17 -21 -29 -41 -26 -44 2 -3 19 14 38 37 l33 42 38 -44 c44 -52 51 -43 8
11 -16 21 -30 42 -30 48 0 5 14 26 30 47 17 21 28 40 25 43 -4 4 -24 -17 -61
-66 -9 -12 -16 -7 -40 26 -25 35 -44 52 -44 38z"/>
</g>
</svg>
