<?xml version="1.0" encoding="UTF-8"?>
<svg version="1.1" xmlns="http://www.w3.org/2000/svg" width="50" height="50">
<path d="M0 0 C16.5 0 33 0 50 0 C50 16.5 50 33 50 50 C33.5 50 17 50 0 50 C0 33.5 0 17 0 0 Z " fill="#FAFCFC" transform="translate(0,0)"/>
<path d="M0 0 C2.9375 2.0625 2.9375 2.0625 5 5 C5 7.31 5 9.62 5 12 C0.05 12 -4.9 12 -10 12 C-8.54711014 16.5841963 -8.54711014 16.5841963 -7 18 C-2.76685233 18.23961213 0.36736489 18.32488647 4 16 C3 19 3 19 1.375 20.25 C-2.04567956 21.3302146 -4.5424105 20.81724843 -8 20 C-10.05938216 18.42114034 -10.84571211 17.30857577 -12 15 C-12.62694897 9.93962616 -12.79621574 6.20638749 -9.9375 1.875 C-6.21389337 -0.50177019 -4.34189423 -0.77533825 0 0 Z " fill="#3F4040" transform="translate(20,15)"/>
<path d="M0 0 C2.3125 1.6875 2.3125 1.6875 4 4 C4 5.65 4 7.3 4 9 C-0.29 9 -4.58 9 -9 9 C-8.6875 5.625 -8.6875 5.625 -8 2 C-4.75173326 -0.16551116 -3.76905843 -0.55156953 0 0 Z " fill="#F4F6F6" transform="translate(19,16)"/>
<path d="M0 0 C4.95 0 9.9 0 15 0 C12 5 12 5 10 7 C3.86454183 7.55776892 3.86454183 7.55776892 1.0625 5.75 C0 4 0 4 0 0 Z " fill="#FBFCFB" transform="translate(10,27)"/>
<path d="M0 0 C3.99996286 1.33332095 4.83782337 3.4957827 7 7 C10.42578949 3.82460444 10.42578949 3.82460444 13 0 C13.66 0.33 14.32 0.66 15 1 C14.62746094 1.45890625 14.25492188 1.9178125 13.87109375 2.390625 C13.39800781 3.00421875 12.92492188 3.6178125 12.4375 4.25 C11.96183594 4.85328125 11.48617187 5.4565625 10.99609375 6.078125 C9.80288212 7.94813901 9.80288212 7.94813901 10.21875 10.0625 C11.32156871 12.7974904 13.08832926 14.77999527 15 17 C14.67 17.66 14.34 18.32 14 19 C12.02 16.69 10.04 14.38 8 12 C7.236875 12.78375 6.47375 13.5675 5.6875 14.375 C3 17 3 17 0 19 C1.05503453 16.72761793 2.06298238 14.92535422 3.6875 13 C5.17957863 11.14575816 5.17957863 11.14575816 4.9375 9.1875 C3.55308001 5.95718669 1.79977706 3.01898088 0 0 Z " fill="#303131" transform="translate(26,16)"/>
<path d="M0 0 C1.875 0.3125 1.875 0.3125 4 1 C6 4 6 4 5.875 5.9375 C4.75334838 8.58139311 3.11358624 10.09095436 1 12 C-0.32 11.34 -1.64 10.68 -3 10 C-3 9.34 -3 8.68 -3 8 C-2.34 8 -1.68 8 -1 8 C-1.020625 7.05125 -1.04125 6.1025 -1.0625 5.125 C-1 2 -1 2 0 0 Z " fill="#F1F4F5" transform="translate(26,20)"/>
</svg>
